<?xml version="1.0" encoding="utf-8" standalone="no"?>
<!DOCTYPE svg PUBLIC "-//W3C//DTD SVG 1.1//EN"
  "http://www.w3.org/Graphics/SVG/1.1/DTD/svg11.dtd">
<!-- Created with matplotlib (https://matplotlib.org/) -->
<svg height="288pt" version="1.1" viewBox="0 0 432 288" width="432pt" xmlns="http://www.w3.org/2000/svg" xmlns:xlink="http://www.w3.org/1999/xlink">
 <metadata>
  <rdf:RDF xmlns:cc="http://creativecommons.org/ns#" xmlns:dc="http://purl.org/dc/elements/1.1/" xmlns:rdf="http://www.w3.org/1999/02/22-rdf-syntax-ns#">
   <cc:Work>
    <dc:type rdf:resource="http://purl.org/dc/dcmitype/StillImage"/>
    <dc:date>2021-05-31T14:20:03.543521</dc:date>
    <dc:format>image/svg+xml</dc:format>
    <dc:creator>
     <cc:Agent>
      <dc:title>Matplotlib v3.3.3, https://matplotlib.org/</dc:title>
     </cc:Agent>
    </dc:creator>
   </cc:Work>
  </rdf:RDF>
 </metadata>
 <defs>
  <style type="text/css">*{stroke-linecap:butt;stroke-linejoin:round;}</style>
 </defs>
 <g id="figure_1">
  <g id="patch_1">
   <path d="M 0 288 
L 432 288 
L 432 0 
L 0 0 
z
" style="fill:none;"/>
  </g>
  <g id="axes_1">
   <g id="patch_2">
    <path d="M 54 252 
L 388.8 252 
L 388.8 34.56 
L 54 34.56 
z
" style="fill:#ffffff;"/>
   </g>
   <g id="matplotlib.axis_1">
    <g id="xtick_1">
     <g id="line2d_1">
      <defs>
       <path d="M 0 0 
L 0 3.5 
" id="me4cb7977b6" style="stroke:#000000;stroke-width:0.8;"/>
      </defs>
      <g>
       <use style="stroke:#000000;stroke-width:0.8;" x="112.698701" xlink:href="#me4cb7977b6" y="252"/>
      </g>
     </g>
     <g id="text_1">
      <!-- 2 -->
      <g transform="translate(107.698701 273.51875)scale(0.2 -0.2)">
       <defs>
        <path d="M 6.5 57.796875 
L 6.5 65.296875 
Q 9.796875 67.59375 14.25 69.25 
Q 18.703125 70.90625 23.796875 70.90625 
Q 32.90625 70.90625 38.5 66.453125 
Q 44.09375 62 44.09375 53 
Q 44.09375 49.203125 43.140625 46.046875 
Q 42.203125 42.90625 40.640625 40 
Q 39.09375 37.09375 37 34.296875 
Q 34.90625 31.5 32.5 28.5 
L 16.59375 8.703125 
L 44.796875 8.703125 
L 44.796875 1.59375 
L 6.40625 1.59375 
L 6.40625 8.703125 
L 25.09375 31.796875 
Q 27.5 34.796875 29.34375 37.296875 
Q 31.203125 39.796875 32.546875 42.25 
Q 33.90625 44.703125 34.59375 47.34375 
Q 35.296875 50 35.296875 53.203125 
Q 35.296875 58.59375 32.140625 61.140625 
Q 29 63.703125 23.796875 63.703125 
Q 20.40625 63.703125 16.453125 62.34375 
Q 12.5 61 7.703125 57.796875 
z
" id="D2Coding-50"/>
       </defs>
       <use xlink:href="#D2Coding-50"/>
      </g>
     </g>
    </g>
    <g id="xtick_2">
     <g id="line2d_2">
      <g>
       <use style="stroke:#000000;stroke-width:0.8;" x="199.65974" xlink:href="#me4cb7977b6" y="252"/>
      </g>
     </g>
     <g id="text_2">
      <!-- 4 -->
      <g transform="translate(194.65974 273.51875)scale(0.2 -0.2)">
       <defs>
        <path d="M 29.40625 69.40625 
L 39.296875 69.40625 
L 39.296875 24.90625 
L 48.40625 24.90625 
L 48.40625 18 
L 39.296875 18 
L 39.296875 1.59375 
L 30.796875 1.59375 
L 30.796875 18 
L 3.203125 18 
L 3.203125 25.703125 
z
M 31.09375 59.703125 
L 30.203125 57.203125 
L 11.203125 24.703125 
L 31.09375 24.703125 
z
" id="D2Coding-52"/>
       </defs>
       <use xlink:href="#D2Coding-52"/>
      </g>
     </g>
    </g>
    <g id="xtick_3">
     <g id="line2d_3">
      <g>
       <use style="stroke:#000000;stroke-width:0.8;" x="286.620779" xlink:href="#me4cb7977b6" y="252"/>
      </g>
     </g>
     <g id="text_3">
      <!-- 6 -->
      <g transform="translate(281.620779 273.51875)scale(0.2 -0.2)">
       <defs>
        <path d="M 40.90625 60.40625 
Q 38.703125 61.796875 35.390625 62.6875 
Q 32.09375 63.59375 29.203125 63.59375 
Q 24.796875 63.59375 21.890625 61.1875 
Q 19 58.796875 17.25 55.140625 
Q 15.5 51.5 14.640625 47.203125 
Q 13.796875 42.90625 13.5 39.09375 
Q 15.59375 42.09375 19.046875 44.09375 
Q 22.5 46.09375 26.796875 46.09375 
Q 31.59375 46.09375 35.09375 44.390625 
Q 38.59375 42.703125 40.9375 39.703125 
Q 43.296875 36.703125 44.4375 32.640625 
Q 45.59375 28.59375 45.59375 23.90625 
Q 45.59375 18.796875 44.34375 14.5 
Q 43.09375 10.203125 40.546875 7.046875 
Q 38 3.90625 34.25 2.15625 
Q 30.5 0.40625 25.5 0.40625 
Q 18.796875 0.40625 14.796875 3.453125 
Q 10.796875 6.5 8.640625 11.140625 
Q 6.5 15.796875 5.796875 21.390625 
Q 5.09375 27 5.09375 32.203125 
Q 5.09375 36.09375 5.5 40.5 
Q 5.90625 44.90625 6.953125 49.15625 
Q 8 53.40625 9.703125 57.25 
Q 11.40625 61.09375 14.046875 64.046875 
Q 16.703125 67 20.390625 68.75 
Q 24.09375 70.5 29 70.5 
Q 32.703125 70.5 35.890625 69.796875 
Q 39.09375 69.09375 42.09375 67.796875 
L 42.09375 60.40625 
z
M 14.09375 23.203125 
Q 14.09375 20.5 14.75 17.640625 
Q 15.40625 14.796875 16.75 12.4375 
Q 18.09375 10.09375 20.25 8.640625 
Q 22.40625 7.203125 25.5 7.203125 
Q 28.59375 7.203125 30.84375 8.703125 
Q 33.09375 10.203125 34.5 12.546875 
Q 35.90625 14.90625 36.546875 17.796875 
Q 37.203125 20.703125 37.203125 23.40625 
Q 37.203125 26.09375 36.59375 28.9375 
Q 36 31.796875 34.703125 34.046875 
Q 33.40625 36.296875 31.25 37.75 
Q 29.09375 39.203125 26 39.203125 
Q 22.796875 39.203125 20.59375 37.75 
Q 18.40625 36.296875 16.953125 34.046875 
Q 15.5 31.796875 14.84375 28.890625 
Q 14.203125 26 14.09375 23.203125 
z
" id="D2Coding-54"/>
       </defs>
       <use xlink:href="#D2Coding-54"/>
      </g>
     </g>
    </g>
    <g id="xtick_4">
     <g id="line2d_4">
      <g>
       <use style="stroke:#000000;stroke-width:0.8;" x="373.581818" xlink:href="#me4cb7977b6" y="252"/>
      </g>
     </g>
     <g id="text_4">
      <!-- 8 -->
      <g transform="translate(368.581818 273.51875)scale(0.2 -0.2)">
       <defs>
        <path d="M 25 7.296875 
Q 30.40625 7.296875 33.796875 10.6875 
Q 37.203125 14.09375 37.203125 20.203125 
Q 37.203125 23.203125 36.25 25.703125 
Q 35.296875 28.203125 33.640625 30 
Q 32 31.796875 29.796875 32.796875 
Q 27.59375 33.796875 25 33.796875 
Q 22.59375 33.796875 20.390625 32.796875 
Q 18.203125 31.796875 16.546875 30 
Q 14.90625 28.203125 13.90625 25.703125 
Q 12.90625 23.203125 12.90625 20.203125 
Q 12.90625 17.203125 13.84375 14.796875 
Q 14.796875 12.40625 16.4375 10.75 
Q 18.09375 9.09375 20.296875 8.1875 
Q 22.5 7.296875 25 7.296875 
z
M 25 40.796875 
Q 29.203125 40.796875 32.390625 43.796875 
Q 35.59375 46.796875 35.59375 52.5 
Q 35.59375 57.90625 32.59375 61.09375 
Q 29.59375 64.296875 25 64.296875 
Q 20.703125 64.296875 17.703125 61.09375 
Q 14.703125 57.90625 14.703125 52.5 
Q 14.703125 49.59375 15.546875 47.4375 
Q 16.40625 45.296875 17.84375 43.796875 
Q 19.296875 42.296875 21.140625 41.546875 
Q 23 40.796875 25 40.796875 
z
M 25 0.40625 
Q 15.5 0.40625 9.796875 5.15625 
Q 4.09375 9.90625 4.09375 19.09375 
Q 4.09375 25.40625 7.1875 30.296875 
Q 10.296875 35.203125 16.59375 37.203125 
Q 11.796875 39 8.890625 42.953125 
Q 6 46.90625 6 52.40625 
Q 6 60.796875 10.890625 65.640625 
Q 15.796875 70.5 24.90625 70.5 
Q 34 70.5 39.140625 65.703125 
Q 44.296875 60.90625 44.296875 52.40625 
Q 44.296875 46.90625 41.25 42.953125 
Q 38.203125 39 33.59375 37.203125 
Q 39.59375 35.203125 42.796875 30.296875 
Q 46 25.40625 46 19.09375 
Q 46 9.90625 40.25 5.15625 
Q 34.5 0.40625 25 0.40625 
z
" id="D2Coding-56"/>
       </defs>
       <use xlink:href="#D2Coding-56"/>
      </g>
     </g>
    </g>
   </g>
   <g id="matplotlib.axis_2">
    <g id="ytick_1">
     <g id="line2d_5">
      <defs>
       <path d="M 0 0 
L -3.5 0 
" id="m8dc114248d" style="stroke:#000000;stroke-width:0.8;"/>
      </defs>
      <g>
       <use style="stroke:#000000;stroke-width:0.8;" x="54" xlink:href="#m8dc114248d" y="213.877403"/>
      </g>
     </g>
     <g id="text_5">
      <!-- 4 -->
      <g transform="translate(37 221.136778)scale(0.2 -0.2)">
       <use xlink:href="#D2Coding-52"/>
      </g>
     </g>
    </g>
    <g id="ytick_2">
     <g id="line2d_6">
      <g>
       <use style="stroke:#000000;stroke-width:0.8;" x="54" xlink:href="#m8dc114248d" y="157.399481"/>
      </g>
     </g>
     <g id="text_6">
      <!-- 6 -->
      <g transform="translate(37 164.658856)scale(0.2 -0.2)">
       <use xlink:href="#D2Coding-54"/>
      </g>
     </g>
    </g>
    <g id="ytick_3">
     <g id="line2d_7">
      <g>
       <use style="stroke:#000000;stroke-width:0.8;" x="54" xlink:href="#m8dc114248d" y="100.921558"/>
      </g>
     </g>
     <g id="text_7">
      <!-- 8 -->
      <g transform="translate(37 108.180933)scale(0.2 -0.2)">
       <use xlink:href="#D2Coding-56"/>
      </g>
     </g>
    </g>
    <g id="ytick_4">
     <g id="line2d_8">
      <g>
       <use style="stroke:#000000;stroke-width:0.8;" x="54" xlink:href="#m8dc114248d" y="44.443636"/>
      </g>
     </g>
     <g id="text_8">
      <!-- 10 -->
      <g transform="translate(27 51.703011)scale(0.2 -0.2)">
       <defs>
        <path d="M 11.296875 1.59375 
L 11.296875 8.90625 
L 24.796875 8.90625 
L 24.796875 60.703125 
L 24.703125 60.703125 
Q 23.40625 59.59375 21.546875 58.390625 
Q 19.703125 57.203125 17.640625 56.09375 
Q 15.59375 55 13.5 54 
Q 11.40625 53 9.703125 52.296875 
L 8.5 52.296875 
L 8.5 59.703125 
Q 13.203125 61.703125 17.640625 64.296875 
Q 22.09375 66.90625 24.59375 69.40625 
L 33.203125 69.40625 
L 33.203125 8.90625 
L 46 8.90625 
L 46 1.59375 
z
" id="D2Coding-49"/>
        <path d="M 24.90625 70.5 
Q 34.90625 70.5 40.296875 61.953125 
Q 45.703125 53.40625 45.703125 35 
Q 45.703125 25.703125 44.296875 19.09375 
Q 42.90625 12.5 40.25 8.296875 
Q 37.59375 4.09375 33.6875 2.1875 
Q 29.796875 0.296875 24.90625 0.296875 
Q 19.796875 0.296875 15.9375 2.1875 
Q 12.09375 4.09375 9.5 8.296875 
Q 6.90625 12.5 5.59375 19.09375 
Q 4.296875 25.703125 4.296875 35 
Q 4.296875 53.40625 9.546875 61.953125 
Q 14.796875 70.5 24.90625 70.5 
z
M 24.796875 6.796875 
Q 30.90625 6.796875 34.34375 13.4375 
Q 37.796875 20.09375 37.296875 34.796875 
Q 37.09375 38.203125 36.890625 41.25 
Q 36.703125 44.296875 36.40625 46.90625 
L 15.09375 14 
Q 16.5 10.203125 18.796875 8.5 
Q 21.09375 6.796875 24.796875 6.796875 
z
M 24.796875 63.703125 
Q 18.796875 63.703125 15.5 56.59375 
Q 12.203125 49.5 12.59375 34.703125 
Q 12.703125 31.203125 12.796875 28.390625 
Q 12.90625 25.59375 13.203125 23 
L 34.40625 55.703125 
Q 31.703125 63.703125 24.796875 63.703125 
z
" id="D2Coding-48"/>
       </defs>
       <use xlink:href="#D2Coding-49"/>
       <use x="49.999985" xlink:href="#D2Coding-48"/>
      </g>
     </g>
    </g>
   </g>
   <g id="line2d_9">
    <path clip-path="url(#p98ba2feeff)" d="M 69.218182 242.116364 
L 373.581818 44.443636 
" style="fill:none;stroke:#1f77b4;stroke-linecap:square;stroke-width:1.5;"/>
   </g>
   <g id="patch_3">
    <path d="M 54 252 
L 54 34.56 
" style="fill:none;stroke:#000000;stroke-linecap:square;stroke-linejoin:miter;stroke-width:0.8;"/>
   </g>
   <g id="patch_4">
    <path d="M 388.8 252 
L 388.8 34.56 
" style="fill:none;stroke:#000000;stroke-linecap:square;stroke-linejoin:miter;stroke-width:0.8;"/>
   </g>
   <g id="patch_5">
    <path d="M 54 252 
L 388.8 252 
" style="fill:none;stroke:#000000;stroke-linecap:square;stroke-linejoin:miter;stroke-width:0.8;"/>
   </g>
   <g id="patch_6">
    <path d="M 54 34.56 
L 388.8 34.56 
" style="fill:none;stroke:#000000;stroke-linecap:square;stroke-linejoin:miter;stroke-width:0.8;"/>
   </g>
  </g>
 </g>
 <defs>
  <clipPath id="p98ba2feeff">
   <rect height="217.44" width="334.8" x="54" y="34.56"/>
  </clipPath>
 </defs>
</svg>
